<svg width="20" height="20" viewBox="0 0 20 20" fill="none" xmlns="http://www.w3.org/2000/svg">
<path d="M2.62257 3.72451C2.44277 3.57028 2.42681 3.29683 2.58981 3.12508C3.05022 2.64154 3.55769 2.20468 4.10465 1.82118C4.29873 1.68528 4.56927 1.73947 4.69866 1.93789L4.70202 1.94373C4.82468 2.13215 4.77343 2.38142 4.58859 2.51148C4.09037 2.86163 3.62911 3.25931 3.2107 3.69783C3.05526 3.86124 2.79901 3.87625 2.62845 3.72868L2.62257 3.72451ZM7.19987 0.808231C7.26372 1.02416 7.48805 1.14838 7.70734 1.09419C8.28958 0.950794 8.89283 0.860754 9.51288 0.833242C9.73889 0.823238 9.91785 0.641491 9.91785 0.417226C9.91785 0.181289 9.72041 -0.00962835 9.48264 0.00037605C8.81133 0.0287218 8.14591 0.12293 7.49813 0.281333C7.26708 0.338024 7.13181 0.576463 7.19903 0.803229L7.19987 0.808231ZM0.36333 8.63334L0.373412 8.63501C0.59774 8.66669 0.804424 8.51662 0.845593 8.29569C0.959017 7.69376 1.13125 7.11267 1.35642 6.55826C1.44128 6.34983 1.34886 6.11306 1.14302 6.01969L1.13545 6.01635C0.918688 5.91798 0.661594 6.01635 0.571694 6.23562C0.319641 6.85255 0.12976 7.49284 0.00709386 8.14729C-0.0365955 8.37906 0.126399 8.60082 0.361649 8.63334H0.36333ZM0.846433 11.6964C0.804424 11.4754 0.59774 11.3254 0.373412 11.357L0.36249 11.3587C0.127239 11.3921 -0.0357553 11.613 0.00793404 11.8456C0.13144 12.5009 0.320481 13.1412 0.572535 13.7581C0.662434 13.9765 0.919529 14.0757 1.13629 13.9774L1.1447 13.974C1.35054 13.8806 1.44296 13.643 1.3581 13.4354C1.13209 12.881 0.959857 12.2999 0.846433 11.698V11.6964ZM8.85418 10.3082L9.24739 9.9956L8.85418 9.6838C8.28874 9.23527 6.93605 8.00973 6.57898 6.33066C6.53613 6.13057 6.53445 5.70622 6.79658 5.38524C6.94193 5.20683 7.22339 4.99424 7.73758 4.99424H12.0998C12.6123 4.99424 12.8929 5.206 13.0391 5.38358C13.3626 5.77792 13.2693 6.27397 13.2584 6.32899C12.9013 8.00973 11.5486 9.23527 10.9832 9.6838L10.59 9.99644L10.9832 10.3091C11.5486 10.7576 12.9013 11.9831 13.2584 13.6622C13.2702 13.7181 13.3626 14.215 13.0391 14.6093C12.8929 14.7869 12.6123 14.9986 12.0998 14.9986H7.73758C7.22423 14.9986 6.94277 14.786 6.79658 14.6076C6.53445 14.2858 6.53613 13.8615 6.57898 13.6614C6.93521 11.9823 8.28874 10.7568 8.85418 10.3082ZM9.37929 9.03268L9.91869 9.46204L10.4589 9.03351C10.9538 8.64084 12.1359 7.57454 12.4367 6.15892C12.4434 6.11973 12.4459 5.978 12.3863 5.90797C12.3275 5.83878 12.1813 5.82794 12.0998 5.82794H7.73758C7.65609 5.82794 7.50989 5.83878 7.45108 5.90797C7.39143 5.978 7.39395 6.11807 7.40151 6.16142C7.70146 7.57371 8.88443 8.64084 9.37929 9.03268ZM7.40151 13.8331C7.39479 13.8731 7.39227 14.014 7.45192 14.0841C7.51073 14.1533 7.65693 14.1641 7.73842 14.1641H12.1006C12.1821 14.1641 12.3283 14.1533 12.3871 14.0841C12.4459 14.014 12.4434 13.8731 12.4367 13.8298C12.1368 12.4183 10.9538 11.3512 10.4589 10.9594L9.91869 10.53L9.37929 10.9585C8.88443 11.3512 7.70146 12.4175 7.40151 13.8331ZM16.5628 2.4923H19.5799C19.8118 2.4923 20 2.30556 20 2.07545C20 1.84535 19.8118 1.6586 19.5799 1.6586H16.2192C15.5244 1.6586 14.9589 2.21969 14.9589 2.90915V6.24395C14.9589 6.47406 15.1471 6.6608 15.379 6.6608C15.6109 6.6608 15.7991 6.47406 15.7991 6.24395V2.93833C17.9323 4.68827 19.1598 7.23606 19.1598 9.9956C19.1598 15.052 15.0135 19.1663 9.91785 19.1663C7.08644 19.1663 4.4508 17.9041 2.68475 15.7048C2.54107 15.5247 2.27726 15.4955 2.0941 15.6381C1.91262 15.7815 1.88321 16.0441 2.02688 16.2242C3.95258 18.6236 6.82851 20 9.91701 20C15.4765 20 19.9992 15.5122 19.9992 9.9956C19.9992 7.08599 18.7481 4.39397 16.5628 2.4923Z" fill="#293342"/>
</svg>
