<svg width="12" height="16" viewBox="0 0 12 16" fill="none" xmlns="http://www.w3.org/2000/svg">
<path d="M2.33333 0C1.71449 0 1.121 0.245833 0.683418 0.683417C0.245833 1.121 0 1.71449 0 2.33333V13.6667C1.3041e-08 14.2855 0.245833 14.879 0.683418 15.3166C1.121 15.7542 1.71449 16 2.33333 16C2.95217 16 3.54566 15.7542 3.98325 15.3166C4.42083 14.879 4.66667 14.2855 4.66667 13.6667V2.33333C4.66667 1.71449 4.42083 1.121 3.98325 0.683417C3.54566 0.245833 2.95217 0 2.33333 0Z" fill="#FEFCF9"/>
<path d="M9.66683 0C9.04799 0 8.4545 0.245833 8.01691 0.683417C7.57933 1.121 7.3335 1.7145 7.3335 2.33333V13.6667C7.3335 14.2855 7.57933 14.879 8.01691 15.3166C8.4545 15.7542 9.04799 16 9.66683 16C10.2857 16 10.8792 15.7542 11.3167 15.3166C11.7543 14.879 12.0002 14.2855 12.0002 13.6667V2.33333C12.0002 1.7145 11.7543 1.121 11.3167 0.683417C10.8792 0.245833 10.2857 0 9.66683 0Z" fill="#FEFCF9"/>
</svg>
